<svg width="17" height="19" viewBox="0 0 17 19" fill="none" xmlns="http://www.w3.org/2000/svg">
<path fill-rule="evenodd" clip-rule="evenodd" d="M8.75415 18.9026C10.4171 18.052 16.7102 14.4316 16.7102 8.35512C16.7102 3.74072 12.9695 0 8.35512 0C3.74072 0 0 3.74072 0 8.35512C0 14.4316 6.29312 18.052 7.95609 18.9026C8.2097 19.0323 8.50055 19.0323 8.75415 18.9026ZM8.35525 11.9359C10.3328 11.9359 11.936 10.3327 11.936 8.35512C11.936 6.37752 10.3328 4.77436 8.35525 4.77436C6.37764 4.77436 4.77448 6.37752 4.77448 8.35512C4.77448 10.3327 6.37764 11.9359 8.35525 11.9359Z" fill="#222222"/>
</svg>
