<svg width="72" height="72" viewBox="0 0 72 72" fill="none" xmlns="http://www.w3.org/2000/svg">
<path fill-rule="evenodd" clip-rule="evenodd" d="M18.012 7.99884C8.325 12.3917 0.3093 16.1009 0.1995 16.2417C0.0357 16.4517 0 19.9925 0 36.0052C0 54.3824 0.01515 55.5293 0.2625 55.796C0.5601 56.117 35.5988 72 36.0092 72C36.4248 72 71.4426 56.1219 71.7375 55.7997C71.9847 55.5296 72 54.3805 72 35.994C72 17.6074 71.9847 16.4583 71.7375 16.1882C71.4035 15.8234 36.3869 -0.0161622 35.9502 1.23791e-05C35.7713 0.00662286 27.6992 3.6061 18.012 7.99884ZM52.2984 9.59281C61.0563 13.5543 68.1999 16.8167 68.1729 16.8427C68.146 16.8687 66.0578 17.83 63.5324 18.979L58.9407 21.0678L56.5829 19.9789C55.2859 19.3798 48.0671 16.1085 40.5405 12.7089C33.0141 9.3094 26.8547 6.49095 26.853 6.44566C26.847 6.28152 35.931 2.24912 36.15 2.31875C36.2738 2.35799 43.5405 5.63144 52.2984 9.59281ZM40.2918 14.9318C49.0635 18.8964 56.2426 22.1719 56.2452 22.2108C56.2501 22.2835 49.9401 25.164 49.7759 25.164C49.6931 25.164 42.1953 21.783 23.9539 13.52L17.5329 10.6115L18.0289 10.4008C18.3018 10.2849 19.736 9.63515 21.216 8.9568C22.6961 8.27859 24.0051 7.72359 24.125 7.72359C24.2448 7.72359 31.52 10.9674 40.2918 14.9318ZM31.875 19.4437L48.675 27.064L48.714 33.596C48.7527 40.075 48.7557 40.1306 49.0776 40.452C49.2563 40.6302 49.5653 40.776 49.7645 40.776C50.1882 40.776 58.8588 36.8993 59.1366 36.5857C59.2794 36.4243 59.3432 34.7748 59.4 29.766L59.475 23.1591L64.5666 20.8564C67.3668 19.5898 69.6787 18.5535 69.7041 18.5535C69.7293 18.5535 69.75 26.6412 69.75 36.5262V54.4987L53.6082 61.8078C44.7303 65.8276 37.4066 69.1378 37.3332 69.1635C37.256 69.1908 37.2 61.6483 37.2 51.2263V33.2422L40.7588 31.6292C42.7161 30.7421 44.5217 29.9215 44.7711 29.8054C45.4085 29.5089 45.6774 28.9403 45.4193 28.4354C45.311 28.2234 45.0317 27.9642 44.7987 27.8595C44.3956 27.6784 44.228 27.7355 41.3501 29.0338C39.6862 29.7845 37.8003 30.6247 37.159 30.9009L35.9933 31.4032L34.6091 30.7998C33.8478 30.4679 33.0419 30.1271 32.8179 30.0423C32.2398 29.8234 31.6409 30.0559 31.4088 30.5893C31.0956 31.3094 31.3785 31.6098 33.1872 32.4777L34.7994 33.2513L34.7997 51.2308C34.7999 61.1197 34.743 69.1894 34.6733 69.1635C34.6035 69.1378 27.2798 65.8258 18.3983 61.8037L2.25 54.4907V36.5221C2.25 26.6394 2.2749 18.5535 2.3055 18.5535C2.33595 18.5535 7.9515 21.0852 14.7843 24.1795C22.0829 27.4846 27.3815 29.8054 27.629 29.8054C27.8605 29.8054 28.185 29.6788 28.35 29.5241C28.7267 29.171 28.7472 28.3837 28.3875 28.0805C28.2431 27.9588 25.02 26.4563 21.225 24.7415C9.1269 19.2749 8.36745 18.9303 6.04425 17.8531L3.76365 16.7954L9.26925 14.3069C12.2975 12.9383 14.8425 11.8197 14.925 11.821C15.0075 11.8224 22.635 15.2527 31.875 19.4437ZM57.15 29.7831V35.2461L54.1608 36.6045C52.5167 37.3518 51.1329 37.963 51.0858 37.963C51.0386 37.963 51 35.497 51 32.4831V27.0031L53.8875 25.6742C55.4756 24.9432 56.8595 24.3395 56.9625 24.3326C57.1095 24.3228 57.15 25.4997 57.15 29.7831ZM5.11095 43.397C4.75815 43.8174 4.7124 44.2694 4.9875 44.6139C5.25465 44.9485 15.2942 49.4924 15.7709 49.4945C16.6904 49.4985 17.2017 48.4032 16.5606 47.8034C16.11 47.3817 6.35145 43.0264 5.85735 43.0264C5.56545 43.0264 5.31915 43.1486 5.11095 43.397ZM5.40255 48.1266C4.8756 48.3813 4.674 48.9899 4.95705 49.4706C5.24325 49.9568 10.3095 52.3445 11.0819 52.3572C12.0352 52.3728 12.5106 51.2667 11.8125 50.6569C11.4726 50.36 6.66345 48.1409 6.0855 48.0144C5.9148 47.9771 5.6073 48.0274 5.40255 48.1266Z" fill="black"/>
</svg>
