<svg width="72" height="72" viewBox="0 0 72 72" fill="none" xmlns="http://www.w3.org/2000/svg">
<path fill-rule="evenodd" clip-rule="evenodd" d="M35.2201 0.34291L34.8749 0.688354V5.06496V9.44157L35.2201 9.78701C35.6768 10.2442 36.3232 10.2442 36.7799 9.78701L37.1251 9.44157V5.06496V0.688354L36.7799 0.34291C36.3232 -0.114303 35.6768 -0.114303 35.2201 0.34291ZM21.7187 4.84748C21.0491 5.51767 21.1657 5.75487 23.7723 9.02419C25.0918 10.6791 26.2747 12.1122 26.4012 12.2089C26.7744 12.4948 27.4008 12.4178 27.7789 12.0393C28.4485 11.3691 28.3319 11.1319 25.7252 7.86258C24.4058 6.20771 23.2228 4.7747 23.0964 4.67785C22.7231 4.39195 22.0967 4.46895 21.7187 4.84748ZM48.9036 4.67785C48.7772 4.7747 47.5943 6.20771 46.2748 7.86258C43.6681 11.1319 43.5515 11.3691 44.2211 12.0393C44.5992 12.4178 45.2256 12.4948 45.5988 12.2089C45.7253 12.1122 46.9082 10.6791 48.2277 9.02419C50.8343 5.75487 50.9509 5.51767 50.2813 4.84748C49.9033 4.46895 49.2769 4.39195 48.9036 4.67785ZM11.5277 15.8941C10.8978 16.0872 10.3421 16.4335 9.89321 16.9127C9.65117 17.1708 7.41752 20.106 4.92945 23.4351C-0.0298096 30.0709 -0.111381 30.2109 0.0355887 31.8339C0.0763744 32.2835 0.244862 32.9309 0.410114 33.2726C0.590556 33.6457 7.29319 41.3604 17.1957 52.5926C29.8239 66.9166 33.8288 71.3743 34.313 71.6457C34.8318 71.9365 35.1342 72 36 72C36.9004 72 37.1523 71.9427 37.7205 71.6084C38.2301 71.3084 42.2385 66.8468 54.8381 52.5546C64.7071 41.3598 71.4102 33.6442 71.5902 33.272C71.7553 32.9306 71.9236 32.2835 71.9644 31.8339C72.1114 30.2109 72.0298 30.0709 67.0705 23.4351C64.5825 20.106 62.3488 17.1707 62.1068 16.9123C61.8649 16.6539 61.4137 16.3055 61.1043 16.138L60.5417 15.8337L36.211 15.8098C22.829 15.7967 11.7215 15.8345 11.5277 15.8941ZM29.3899 18.0964C29.3899 18.297 22.4544 29.4261 22.3525 29.3891C22.2268 29.3433 13.6382 18.2055 13.6382 18.0881C13.6382 18.0482 17.1823 18.0156 21.514 18.0156C25.8458 18.0156 29.3899 18.0519 29.3899 18.0964ZM43.6323 24.1291C45.7 27.4915 47.3919 30.2787 47.3919 30.3229C47.3919 30.367 42.2655 30.4031 36 30.4031C29.7345 30.4031 24.6081 30.367 24.6081 30.3229C24.6081 30.2787 26.3 27.4915 28.3677 24.1291L32.1275 18.0156H36H39.8725L43.6323 24.1291ZM58.3618 18.0881C58.3618 18.2055 49.7732 29.3433 49.6475 29.3891C49.5456 29.4261 42.6101 18.297 42.6101 18.0964C42.6101 18.0519 46.1542 18.0156 50.486 18.0156C54.8177 18.0156 58.3618 18.0482 58.3618 18.0881ZM15.7258 24.5597C18.1359 27.6945 20.1076 30.2917 20.1076 30.3312C20.1076 30.3708 16.152 30.4031 11.3172 30.4031H2.52689L6.8513 24.6317C9.22981 21.4574 11.2137 18.8602 11.26 18.8602C11.3062 18.8602 13.3158 21.425 15.7258 24.5597ZM65.1758 24.6669L69.4741 30.4031H60.6832C55.8483 30.4031 51.8924 30.3708 51.8924 30.3312C51.8924 30.1678 60.6701 18.8564 60.7694 18.8919C60.8289 18.9131 62.8117 21.512 65.1758 24.6669ZM26.7384 48.7733C32.8238 68.1375 32.2533 66.2729 32.0143 66.0143C31.9084 65.8998 25.4109 58.5215 17.5753 49.6179C9.73963 40.7144 3.16793 33.255 2.97117 33.0416L2.61367 32.6535L12.1544 32.6896L21.6952 32.7258L26.7384 48.7733ZM47.8722 32.9722C47.8165 33.1464 45.2231 41.3971 42.109 51.3071C38.9949 61.2172 36.4031 69.4363 36.3492 69.5718C36.2953 69.7072 36.1381 69.8181 36 69.8181C35.8619 69.8181 35.7047 69.7072 35.6508 69.5718C35.5969 69.4363 33.0051 61.2172 29.891 51.3071C26.7769 41.3971 24.1835 33.1464 24.1278 32.9722L24.0266 32.6554H36H47.9734L47.8722 32.9722ZM69.0278 33.0425C68.8316 33.2554 62.2604 40.7144 54.4247 49.6179C38.3356 67.9 39.7575 66.2995 39.8552 66.0174C39.8955 65.9012 42.2418 58.4265 45.0692 49.4068C47.8966 40.3871 50.2384 32.9282 50.2732 32.8314C50.323 32.693 52.3689 32.6554 59.8605 32.6554H69.3844L69.0278 33.0425Z" fill="black"/>
</svg>
