<svg width="94" height="76" viewBox="0 0 94 76" fill="none" xmlns="http://www.w3.org/2000/svg">
<path d="M54.758 15.8636L55.8017 16.5515L55.8017 16.5515L54.758 15.8636ZM36.5314 11C36.5314 11.6904 37.091 12.25 37.7814 12.25C38.4718 12.25 39.0314 11.6904 39.0314 11H36.5314ZM88.122 57.6764L88.8371 56.6511L88.122 57.6764ZM5.87794 57.6764L5.16294 56.6511L5.87794 57.6764ZM54.9686 11C54.9686 12.538 54.5092 13.9696 53.7143 15.1757L55.8017 16.5515C56.8555 14.9525 57.4686 13.0453 57.4686 11H54.9686ZM39.0314 11C39.0314 6.7479 42.5706 3.25 47 3.25V0.75C41.2468 0.75 36.5314 5.31097 36.5314 11H39.0314ZM47 3.25C51.4294 3.25 54.9686 6.7479 54.9686 11H57.4686C57.4686 5.31097 52.7532 0.75 47 0.75V3.25ZM46.285 30.0253L87.407 58.7017L88.8371 56.6511L47.715 27.9747L46.285 30.0253ZM82.7638 72.75H11.2361V75.25H82.7638V72.75ZM6.59295 58.7017L47.715 30.0253L46.285 27.9747L5.16294 56.6511L6.59295 58.7017ZM87.407 58.7017C93.6436 63.0508 90.5795 72.75 82.7638 72.75V75.25C92.8846 75.25 97.1959 62.4802 88.8371 56.6511L87.407 58.7017ZM11.2361 72.75C3.4205 72.75 0.356392 63.0508 6.59295 58.7017L5.16294 56.6511C-3.19596 62.4802 1.11537 75.25 11.2361 75.25V72.75ZM53.7143 15.1757C53.0657 16.1597 52.2744 17.1476 51.4189 18.1856C50.5769 19.2072 49.6648 20.2865 48.8436 21.3883C47.2117 23.5779 45.75 26.0935 45.75 29H48.25C48.25 26.9359 49.2897 24.9733 50.8481 22.8823C51.622 21.8439 52.4773 20.8322 53.3481 19.7756C54.2055 18.7352 55.0728 17.6574 55.8017 16.5515L53.7143 15.1757Z" fill="#28303F"/>
</svg>
